# Blender v2.79 (sub 0) OBJ File: 'ShipLayers_Shape.blend'
# www.blender.org
mtllib 3rdDeck.mtl
o 3rdDeck_Shape_ID771
v -42.780876 7.987937 -11.142230
v -71.589684 7.987937 8.748542
v -71.589684 7.987937 10.061896
v -71.504951 7.987937 10.061896
v -71.038910 7.987937 10.125453
v -63.582520 7.987937 10.824483
v -64.705231 7.987937 10.760924
v -63.434231 7.987937 10.824483
v -46.932732 7.987937 11.163408
v -46.784424 7.987937 11.163408
v -45.661747 7.987937 11.163408
v -71.589684 7.987937 -7.477598
v -71.589684 7.987937 -6.206620
v -43.119785 7.987937 -11.163416
v -44.390778 7.987937 -11.163416
v -48.203697 7.987937 -11.163416
v -49.474667 7.987937 -11.163416
v -41.848824 7.987937 -11.121050
v -41.298050 7.987937 -11.099892
v -40.577831 7.987937 -11.099892
v -56.549789 7.987937 -11.099892
v -57.079350 7.987937 -11.099892
v -56.528610 7.987937 -11.121050
v -55.829552 7.987937 -11.121050
v -59.261200 7.987937 -11.015156
v -59.621304 7.987937 -11.015156
v -59.240025 7.987937 -11.036339
v -58.710461 7.987937 -11.036339
v -58.689255 7.987937 -11.057497
v -58.350323 7.987937 -11.057497
v -60.892281 7.987937 -10.972764
v -62.163258 7.987937 -10.888028
v -66.230408 7.987937 -10.655010
v -67.247185 7.987937 -10.549119
v -65.976212 7.987937 -10.655010
v -68.518158 7.987937 -10.443200
v -69.767929 7.987937 -10.294914
v -45.661747 7.987937 -11.163416
v -46.784424 7.987937 -11.163416
v -46.932732 7.987937 -11.163416
v -50.745651 7.987937 -11.163416
v -50.788025 7.987937 -11.163416
v -52.016621 7.987937 -11.163416
v -63.497784 7.987937 -10.803320
v -63.582520 7.987937 -10.803320
v -63.476608 7.987937 -10.824475
v -63.434231 7.987937 -10.824475
v -64.705231 7.987937 -10.739746
v -40.599014 7.987937 -10.506774
v -41.997108 7.987937 2.669034
v -41.997108 7.987937 10.379648
v -41.891167 7.987937 10.379648
v -40.599014 7.987937 10.527905
v -71.568504 7.987937 3.664638
v -71.589684 7.987937 3.622289
v -71.589684 7.987937 0.000000
v -71.589684 7.987937 -3.664669
v -53.308807 7.987937 -11.163416
v -54.558575 7.987937 -11.163416
v -71.589684 7.987937 -4.935645
v -71.589684 7.987937 4.956789
v -41.192135 7.987937 2.669034
v -41.192135 7.987937 -2.796149
v -41.997108 7.987937 -2.796149
v -41.997108 7.987937 -10.357419
v -71.038910 7.987937 -10.125445
v -71.589684 7.987937 -10.061895
v -71.589684 7.987937 -8.748562
v -71.589684 7.987937 6.227765
v -71.589684 7.987937 7.477567
v -69.767929 7.987937 10.316092
v -68.602898 7.987937 10.443174
v -68.518158 7.987937 10.443174
v -67.247185 7.987937 10.570288
v -66.272758 7.987937 10.655020
v -65.976212 7.987937 10.655020
v -61.400665 7.987937 10.951565
v -60.977009 7.987937 10.972772
v -61.421875 7.987937 10.930389
v -61.824329 7.987937 10.930389
v -61.845531 7.987937 10.909213
v -62.163258 7.987937 10.909213
v -60.892281 7.987937 10.972772
v -59.600132 7.987937 11.036297
v -58.922276 7.987937 11.057503
v -58.350330 7.987937 11.057503
v -40.704933 7.987937 11.121029
v -41.848824 7.987937 11.121029
v -40.683750 7.987937 11.099853
v -40.577831 7.987937 11.099853
v -57.058178 7.987937 11.121029
v -56.316765 7.987937 11.142235
v -55.829552 7.987937 11.142235
v -42.780872 7.987937 11.163408
v -43.119785 7.987937 11.163408
v -44.390778 7.987937 11.163408
v -48.203697 7.987937 11.163408
v -49.474667 7.987937 11.163408
v -50.745651 7.987937 11.163408
v -52.016621 7.987937 11.163408
v -53.287598 7.987937 11.163408
v -54.558578 7.987937 11.163408
v -42.780876 7.987937 -11.142230
v -71.589684 7.987937 8.748542
v -71.589684 7.987937 10.061896
v -71.504951 7.987937 10.061896
v -71.038910 7.987937 10.125453
v -63.582520 7.987937 10.824483
v -64.705231 7.987937 10.760924
v -63.434231 7.987937 10.824483
v -46.932732 7.987937 11.163408
v -46.784424 7.987937 11.163408
v -45.661747 7.987937 11.163408
v -71.589684 7.987937 -7.477598
v -71.589684 7.987937 -6.206620
v -43.119785 7.987937 -11.163416
v -44.390778 7.987937 -11.163416
v -48.203697 7.987937 -11.163416
v -49.474667 7.987937 -11.163416
v -41.848824 7.987937 -11.121050
v -41.298050 7.987937 -11.099892
v -40.577831 7.987937 -11.099892
v -56.549789 7.987937 -11.099892
v -57.079350 7.987937 -11.099892
v -56.528610 7.987937 -11.121050
v -55.829552 7.987937 -11.121050
v -59.261200 7.987937 -11.015156
v -59.621304 7.987937 -11.015156
v -59.240025 7.987937 -11.036339
v -58.710461 7.987937 -11.036339
v -58.689255 7.987937 -11.057497
v -58.350323 7.987937 -11.057497
v -60.892281 7.987937 -10.972764
v -62.163258 7.987937 -10.888028
v -66.230408 7.987937 -10.655010
v -67.247185 7.987937 -10.549119
v -65.976212 7.987937 -10.655010
v -68.518158 7.987937 -10.443200
v -69.767929 7.987937 -10.294914
v -45.661747 7.987937 -11.163416
v -46.784424 7.987937 -11.163416
v -46.932732 7.987937 -11.163416
v -50.745651 7.987937 -11.163416
v -50.788025 7.987937 -11.163416
v -52.016621 7.987937 -11.163416
v -63.497784 7.987937 -10.803320
v -63.582520 7.987937 -10.803320
v -63.476608 7.987937 -10.824475
v -63.434231 7.987937 -10.824475
v -64.705231 7.987937 -10.739746
v -40.599014 7.987937 -10.506774
v -41.997108 7.987937 2.669034
v -41.997108 7.987937 10.379648
v -41.891167 7.987937 10.379648
v -40.599014 7.987937 10.527905
v -71.568504 7.987937 3.664638
v -71.589684 7.987937 3.622289
v -71.589684 7.987937 0.000000
v -71.589684 7.987937 -3.664669
v -53.308807 7.987937 -11.163416
v -54.558575 7.987937 -11.163416
v -71.589684 7.987937 -4.935645
v -71.589684 7.987937 4.956789
v -41.192135 7.987937 2.669034
v -41.192135 7.987937 -2.796149
v -41.997108 7.987937 -2.796149
v -41.997108 7.987937 -10.357419
v -71.038910 7.987937 -10.125445
v -71.589684 7.987937 -10.061895
v -71.589684 7.987937 -8.748562
v -71.589684 7.987937 6.227765
v -71.589684 7.987937 7.477567
v -69.767929 7.987937 10.316092
v -68.602898 7.987937 10.443174
v -68.518158 7.987937 10.443174
v -67.247185 7.987937 10.570288
v -66.272758 7.987937 10.655020
v -65.976212 7.987937 10.655020
v -61.400665 7.987937 10.951565
v -60.977009 7.987937 10.972772
v -61.421875 7.987937 10.930389
v -61.824329 7.987937 10.930389
v -61.845531 7.987937 10.909213
v -62.163258 7.987937 10.909213
v -60.892281 7.987937 10.972772
v -59.600132 7.987937 11.036297
v -58.922276 7.987937 11.057503
v -58.350330 7.987937 11.057503
v -40.704933 7.987937 11.121029
v -41.848824 7.987937 11.121029
v -40.683750 7.987937 11.099853
v -40.577831 7.987937 11.099853
v -57.058178 7.987937 11.121029
v -56.316765 7.987937 11.142235
v -55.829552 7.987937 11.142235
v -42.780872 7.987937 11.163408
v -43.119785 7.987937 11.163408
v -44.390778 7.987937 11.163408
v -48.203697 7.987937 11.163408
v -49.474667 7.987937 11.163408
v -50.745651 7.987937 11.163408
v -52.016621 7.987937 11.163408
v -53.287598 7.987937 11.163408
v -54.558578 7.987937 11.163408
vn 0.0000 -1.0000 -0.0000
vn 0.0000 1.0000 0.0000
usemtl edge_color000255.001
s off
f 2//1 70//1 69//1 61//1 54//1 55//1 56//1 57//1 60//1 13//1 12//1 68//1 67//1 66//1 37//1 36//1 34//1 33//1 35//1 48//1 45//1 44//1 46//1 47//1 32//1 31//1 26//1 25//1 27//1 28//1 29//1 30//1 22//1 21//1 23//1 24//1 59//1 58//1 43//1 42//1 41//1 17//1 16//1 40//1 39//1 38//1 15//1 14//1 18//1 19//1 20//1 49//1 65//1 64//1 63//1 62//1 50//1 51//1 52//1 53//1 90//1 89//1 87//1 88//1 94//1 95//1 96//1 11//1 10//1 9//1 97//1 98//1 99//1 100//1 101//1 102//1 93//1 92//1 91//1 86//1 85//1 84//1 83//1 78//1 77//1 79//1 80//1 81//1 82//1 8//1 6//1 7//1 76//1 75//1 74//1 73//1 72//1 71//1 5//1 4//1 3//1
f 104//2 105//2 106//2 107//2 173//2 174//2 175//2 176//2 177//2 178//2 109//2 108//2 110//2 184//2 183//2 182//2 181//2 179//2 180//2 185//2 186//2 187//2 188//2 193//2 194//2 195//2 204//2 203//2 202//2 201//2 200//2 199//2 111//2 112//2 113//2 198//2 197//2 196//2 190//2 189//2 191//2 192//2 155//2 154//2 153//2 152//2 164//2 165//2 166//2 167//2 151//2 122//2 121//2 120//2 116//2 117//2 140//2 141//2 142//2 118//2 119//2 143//2 144//2 145//2 160//2 161//2 126//2 125//2 123//2 124//2 132//2 131//2 130//2 129//2 127//2 128//2 133//2 134//2 149//2 148//2 146//2 147//2 150//2 137//2 135//2 136//2 138//2 139//2 168//2 169//2 170//2 114//2 115//2 162//2 159//2 158//2 157//2 156//2 163//2 171//2 172//2
